# xmcd CD database file
# Copyright (C) 1996 Ti Kan
#
# Track frame offsets:
#  150
#  10600
#  22217
#  32752
#  43795
#  53382
#  64155
#  75027
#  86187
#  98027
#  109277
#  118622
#
# Disc length: 1722 seconds
#
# Revision: 1
# Processed by: cddbd v1.4b41PL1 Copyright (c) Steve Scherf et al.
# Submitted via: CDWizzard Release:4.10
#
DISCID=8c06b80c
DTITLE=Kitty Wells - Kitty Wells: Dust on the Bible
DYEAR=1900
DGENRE=
TTITLE0=Dust on the Bible
TTITLE1=I Dreamed I Searched Heaven for You
TTITLE2=Lonesome Valley
TTITLE3=My Loved Ones Are Waiting for Me
TTITLE4=I Heard My Saviour Call
TTITLE5=The Great Speckled Bird
TTITLE6=He Will Set Your Fields on Fire
TTITLE7=We Buried Her Beneath the Willows
TTITLE8=(I've Got My) One-Way Ticket to the Sky
TTITLE9=I Need the Prayers
TTITLE10=(Juat Compare Today with) Matthew Twenty-Four
TTITLE11=Lord I'm Coming Home
EXTD=
EXTT0=Kitty Wells
EXTT1=Kitty Wells
EXTT2=Kitty Wells
EXTT3=Kitty Wells
EXTT4=Kitty Wells
EXTT5=Kitty Wells
EXTT6=Kitty Wells
EXTT7=Kitty Wells
EXTT8=Kitty Wells
EXTT9=Kitty Wells
EXTT10=Kitty Wells
EXTT11=Kitty Wells
PLAYORDER=
